<svg xmlns="http://www.w3.org/2000/svg" viewBox="80 70 1040 990">
  <style>
    .st0 {
      fill: #022e54;
      stroke: #022e54;
      stroke-width: 1;
    }
    .st1 {
      fill: #1e759c;
      stroke: #1e759c;
      stroke-width: 1;
    }
    .st2 {
      fill: #fffdeb;
      stroke: #fffdeb;
      stroke-width: 1;
    }
    .st3 {
      fill: #caf1d4;
      stroke: #caf1d4;
      stroke-width: 1;
    }
  </style>
  <path
    class="st0"
    d="M252.9,279.9C310.2,159,439.6,79.8,571.4,72.5c28.6-0.5,33.3-0.4,55.7,0.3c76.7,2.5,150.1,35.7,211.8,80.3
	c68.3,54.5,122.5,132.1,134.9,220c1.4,7.2-1.2,15.9,4.2,21.8c83.5,63.2,135.3,166.4,137.9,270.7c-0.3,8.9-0.3,17.8,0,26.7
	c0.2,46.2-14.2,90.9-29.9,133.9c-47.6,107.2-144.5,191.5-258,221.8c-75.7,18.2-157,13.7-229.5-15.3c-34,14.8-71.2,26.5-108.6,27.5
	c-15.3-0.2-30.7-0.2-46,0c-97.4-3.4-189.1-52.9-257.3-120.7c-33.1-36.5-62.2-77.8-79.8-124.2c-13.1-34.1-25.1-69.8-24.7-106.7
	c0-19.7-0.1-39.3,0-59c0-44.3,16.1-86.8,33.4-127c23.9-50.5,59.5-96,105.1-128.7C226,354.7,232.6,314.7,252.9,279.9 M358.3,234.3
	c-34.9,36.3-62.7,82.5-66.6,133.7c0.1,18.1-1.5,36.6,3.7,54.2c-34.1,18.1-65.5,42.5-88.8,73.5c-9,12.6-19.4,26.5-18.6,42.8
	c-3.9,14.2,6.4,31.6,21.8,32c12.3,1.1,23.1-7.9,27.7-18.8c8-3.6,13.9-10.3,21.7-14.2c32-18.9,72.2-21.6,107.1-9.8
	c36.3,17.3,63.3,47.9,93.4,73.6c45.1,42.9,86.9,92,109.5,150.7c10.9,25.6,10.7,54.1,7.9,81.2c-10.2,58.3-63.5,112.5-124.9,109
	c-8.1-5.1-16.5-11.1-19.8-20.5c-4.3-13.8,1.7-28.2,11.7-37.8c16.1-5.9,33.9-9.8,46.8-21.9c20.9-17.7,28.5-47.7,22.9-73.9
	c-4.7-24.9-18.1-47.1-32.2-67.7c-30.4-48.5-76.2-84.1-118.8-121.3C350.3,588.1,333,580,316,583.7c-26.8,2.5-47.4,22.7-63.3,42.8
	c-18.4,9-43.9,15.3-59.6-2.6c-5.1-9.2-16.6-13.2-26.1-8c-13.5,6.8-19.6,22.1-22,36.3c-10.3,88.7,23.4,179.8,84.8,244
	c54.2,54.9,127.1,95.1,204.8,101.1c58.2,11,122-4.7,167-43.8c28.3-24.6,49.6-57.8,57.3-94.7c5.8-22.8,3.4-46.6,3.4-69.8
	c-4.5-33.5-18.4-65-36.2-93.6c-10-16.2-21.1-31.7-32.6-46.8c-28.7-43.6-70.9-75.1-107.8-111.2c-38.7-35.2-81.4-71.4-98.3-122.9
	c-0.3-0.1-1-0.3-1.4-0.4c-6.3-28.2-8.4-57.7-2.3-86.2c10.2-54.4,54-92.8,96.7-123.4c12.4-8.9,31-11.9,43.4-1.3
	c16.3,12.6,16.7,38.5,0.3,51.1c-22.8,11.4-44.7,26.1-59.7,47.1c-19.1,25.3-27.3,59.6-18.1,90.3c8.1,30.8,31,54.4,53.8,75.3
	c30.9,28.3,63,55.4,92.8,84.9c38.8-30.8,73.9-66.1,107.6-102.3c30.3-31.4,48.1-79.2,30.3-121.4c-14.5-38.1-48.7-64.1-85.3-79.3
	c-5.8-9.5-13.7-19.7-10.6-31.6c2.9-16.4,19.9-25.6,35.5-25.8c5.6,3,12.3,2.3,18,5c55,31.6,101.5,85,109.6,149.8
	c0,0.5-0.1,1.4-0.1,1.9c21.5-0.8,43.2,0.1,64.6-0.7c14.2,2.4,28.4,5.1,41.8,10.4c-5-34-22.4-65.3-42.5-92.7
	C819.8,204.8,754,164,684.3,143.6C570,111,439.2,147,358.3,234.3 M794.5,408.4c-9.3,39.9-35.9,73-63.4,102.3l-0.8-0.2
	c-30.6,31.8-63.2,61.5-96.4,90.3c14.6,16.6,25.9,35.9,39.4,53.3c5.1-0.6,8.5-5.4,12.2-8.7c28.5-27.8,56.8-55.8,83.8-85.1
	c8.9-7.8,17.3-16.3,27.1-23c30.3-23.4,72.1-28.5,108.3-18c21.8,7.3,41.3,20.3,57.4,36.6c6,10.8,19.2,17.1,31.3,13.2
	c14.7-5.3,20.2-22.1,16.2-36.4c-0.3-0.2-0.8-0.7-1.1-0.9c-4.1-25.2-22.8-44.7-38.9-63.3c-21.8-19.9-45.3-39.4-73.5-49.5
	C863.7,407.2,828.5,403,794.5,408.4 M809.7,608.7c-33.8,34.9-67.7,69.8-105.4,100.6c11.9,29.7,23.5,61.1,22.2,93.7
	c0.2,20.5,0.1,41.1-4.9,61.1c-0.3,0-1,0-1.3,0c-7.8,45.9-31.1,89.1-64.8,121.3c36.3,16.5,77.5,13.2,116.3,12
	c77-9.8,147.9-50.7,199.7-107.8c54.2-59.6,85.5-140.7,80.8-221.6c0.5-21.6-3.3-55.2-30.4-57.8c-14.7-0.4-19.2,17.5-31.8,22
	c-14.5,7.8-31,2.6-44.8-3.8c-19.3-18.8-37.7-41.8-65-49C853.1,571.3,826,587.7,809.7,608.7z"
  />
  <path
    class="st1"
    d="M358.3,234.3C439.2,147,570,111,684.3,143.6c-26.2-2.7-37.5,36.9-13.8,47.8c-15.5,0.2-32.6,9.3-35.5,25.8
	c-3.1,11.9,4.8,22.1,10.6,31.6c-39.3-13.6-83.5-11.2-121.5,5.5c16.5-12.6,16.1-38.6-0.3-51.1c-12.3-10.7-31-7.7-43.4,1.3
	c-42.7,30.7-86.5,69.1-96.7,123.4c-6.1,28.5-4,58,2.3,86.2c-29.5-11.4-62.9-5.7-90.5,8.1c-5.3-17.6-3.6-36.1-3.7-54.2
	C295.6,316.8,323.4,270.6,358.3,234.3z"
  />
  <path
    class="st2"
    d="M670.5,191.4c-23.6-10.9-12.3-50.5,13.8-47.8C754,164,819.8,204.8,861.9,265.1c20.2,27.5,37.5,58.7,42.5,92.7
	c-13.4-5.4-27.6-8.1-41.8-10.4c-21.3-3.5-43-0.7-64.5-1.2c-8.1-64.8-54.6-118.1-109.6-149.8C682.8,193.8,676.1,194.4,670.5,191.4z"
  />
  <path
    class="st2"
    d="M524.1,254.3c38-16.7,82.2-19.1,121.5-5.5c36.6,15.2,70.8,41.2,85.3,79.3c17.8,42.2-0.1,90-30.3,121.4
	c-33.7,36.2-68.8,71.6-107.6,102.3C563,522.3,531,495.2,500,467c-22.8-20.9-45.7-44.5-53.8-75.3c-9.2-30.7-1-65,18.1-90.3
	C479.4,280.4,501.3,265.7,524.1,254.3z"
  />
  <path
    class="st3"
    d="M794.5,408.4c34-5.4,69.2-1.2,101.5,10.7c28.2,10,51.6,29.6,73.5,49.5c16.1,18.6,34.8,38.1,38.9,63.3
	c-6.7-5-13.1-12.4-22.3-11.6c-16.5,1.4-32.3,19.1-24,35.7c-16.1-16.3-35.6-29.3-57.4-36.6c-15.9-30.2-50.6-49.3-84.6-47.2
	c-28.3-0.3-53.4,15.4-75.6,31.3c-4.2,2.5-7.5,9.6-13.3,7.3C758.6,481.5,785.1,448.4,794.5,408.4z"
  />
  <path
    class="st3"
    d="M295.5,422.2c27.6-13.8,61-19.5,90.5-8.1c0.3,0.1,1,0.3,1.4,0.4c16.9,51.4,59.6,87.7,98.3,122.9
	c36.9,36.1,79,67.6,107.8,111.2c11.5,15.1,22.6,30.7,32.6,46.8c-19.9,17.8-39.6,36.2-56.8,56.6c-22.6-58.7-64.3-107.8-109.5-150.7
	c-30.1-25.7-57.1-56.3-93.4-73.6C334.2,499.7,305,464.8,295.5,422.2z"
  />
  <path
    class="st1"
    d="M206.7,495.7c23.3-31,54.6-55.5,88.8-73.5c9.5,42.7,38.7,77.5,71,105.5c-34.9-11.9-75.1-9.1-107.1,9.8
	c-7.8,4-13.7,10.7-21.7,14.2c3.5-16-11.8-31.8-27.7-30.1c-10,0.5-18.1,7.9-21.8,16.9C187.3,522.2,197.8,508.3,206.7,495.7z"
  />
  <path
    class="st1"
    d="M744.4,503.5c22.2-15.9,47.3-31.5,75.6-31.3c34-2,68.7,17,84.6,47.2c-36.2-10.5-78-5.4-108.3,18
	c-9.8,6.7-18.2,15.2-27.1,23c-27,29.3-55.3,57.3-83.8,85.1c-3.7,3.3-7.1,8-12.2,8.7c-13.5-17.4-24.8-36.6-39.4-53.3
	c33.3-28.9,65.9-58.5,96.4-90.3l0.8,0.2C736.8,513.1,740.1,506,744.4,503.5z"
  />
  <path
    class="st2"
    d="M962,556c-8.2-16.7,7.6-34.3,24-35.7c9.2-0.7,15.6,6.6,22.3,11.6c0.3,0.2,0.8,0.7,1.1,0.9
	c4.1,14.3-1.5,31-16.2,36.4C981.2,573.1,968,566.8,962,556z"
  />
  <path
    class="st2"
    d="M188.2,538.5c3.7-8.9,11.8-16.3,21.8-16.9c15.9-1.8,31.2,14.1,27.7,30.1c-4.6,10.9-15.4,19.9-27.7,18.8
	C194.5,570.1,184.2,552.7,188.2,538.5z"
  />
  <path
    class="st2"
    d="M809.7,608.7c16.3-21,43.4-37.4,70.7-29.3c27.2,7.2,45.7,30.1,65,49c46.8,71.1,19.1,172-45.6,222.4
	c-29.8,22.5-66.9,37.8-104.8,35.7c-20.5,0.8-41.8-0.5-60.4-10c-5.2-2.9-14-4.7-12.9-12.3c4.9-20,5.1-40.6,4.9-61.1
	c1.3-32.6-10.2-64-22.2-93.7C742,678.6,775.9,643.6,809.7,608.7z"
  />
  <path
    class="st2"
    d="M316,583.7c17-3.7,34.3,4.4,46.9,15.4c42.5,37.2,88.3,72.8,118.8,121.3c14.1,20.6,27.5,42.8,32.2,67.7
	c5.6,26.2-1.9,56.3-22.9,73.9c-13,12.1-30.7,16-46.8,21.9c-21.5,4.1-43.5,2.6-65.2,2.2c-83.8-11.3-152-90.6-151.3-175
	c-1-30,8.3-59.8,25.1-84.5C268.6,606.4,289.2,586.2,316,583.7z"
  />
  <path
    class="st1"
    d="M990.1,632.2c12.6-4.5,17.2-22.4,31.8-22c27.1,2.7,30.9,36.2,30.4,57.8c4.7,80.9-26.6,162-80.8,221.6
	c-51.7,57.1-122.7,98-199.7,107.8c-38.8,1.2-80,4.5-116.3-12c33.6-32.2,57-75.4,64.8-121.3c0.3,0,1,0,1.3,0
	c-1.1,7.7,7.8,9.5,12.9,12.3c18.6,9.5,39.9,10.8,60.4,10c37.9,2.1,75-13.2,104.8-35.7c64.6-50.4,92.3-151.3,45.6-222.4
	C959.1,634.8,975.6,640,990.1,632.2z"
  />
  <path
    class="st1"
    d="M167,615.9c9.5-5.3,20.9-1.2,26.1,8c15.7,17.8,41.3,11.6,59.6,2.6c-16.8,24.8-26.1,54.5-25.1,84.5
	c-0.7,84.4,67.6,163.7,151.3,175c21.7,0.5,43.7,1.9,65.2-2.2c-10,9.6-16,24-11.7,37.8c3.3,9.5,11.7,15.4,19.8,20.5
	c-11.8,1.1-25,4.7-31.6,15.4c-7.8,14.1-1.9,34.3,14,39.7c-77.7-6.1-150.5-46.2-204.8-101.1c-61.4-64.2-95.1-155.3-84.8-244
	C147.4,638.1,153.5,622.8,167,615.9z"
  />
  <path
    class="st2"
    d="M569.2,752c17.2-20.4,37-38.8,56.8-56.6c17.8,28.6,31.7,60.1,36.2,93.6c0,23.3,2.4,47-3.4,69.8
	c-7.7,36.9-29,70.1-57.3,94.7c-45,39.1-108.7,54.9-167,43.8c-15.9-5.4-21.7-25.6-14-39.7c6.6-10.8,19.8-14.3,31.6-15.4
	c61.4,3.5,114.7-50.7,124.9-109C580,806.1,580.1,777.6,569.2,752z"
  />
</svg>
